<svg height="1024" viewBox="0 0 1024 1024" width="1024" xmlns="http://www.w3.org/2000/svg"><path d="m15.529813 15.529813h992.94037v992.94037h-992.94037z" fill="#fff" stroke="#333" stroke-miterlimit="10" stroke-width="31.0596"/><path d="m204.75763 929.29242h312.48v-50.84l-88.04-6.2-21.08-17.36v-244.28c38.44 3.72 69.44 6.2 93 6.2 199.64 0 321.16-107.88 321.16-266.6 0-188.48-106.64-252.960001-344.72-252.960001h-282.72v49.600001l80.6 7.44 21.08 17.36v683.24l-21.08 17.36-70.68 6.2zm203.36-378.2v-394.32c22.32-2.48 44.64-2.48 64.48-2.48 158.72 0 234.36 60.76 234.36 193.44 0 136.4-75.64 209.56-217 209.56-18.6 0-45.88-2.48-81.84-6.2z" fill="#4169e1"/></svg>