<?xml version="1.0" standalone="no"?>
<!DOCTYPE svg PUBLIC "-//W3C//DTD SVG 20010904//EN"
 "http://www.w3.org/TR/2001/REC-SVG-20010904/DTD/svg10.dtd">
<svg version="1.0" xmlns="http://www.w3.org/2000/svg"
 width="700.000000pt" height="700.000000pt" viewBox="0 0 700.000000 700.000000"
 preserveAspectRatio="xMidYMid meet">
<metadata>
Created by potrace 1.14, written by Peter Selinger 2001-2017
</metadata>
<g transform="translate(0.000000,700.000000) scale(0.100000,-0.100000)"
fill="#000000" stroke="none">
<path d="M0 3500 l0 -3500 3500 0 3500 0 0 3500 0 3500 -3500 0 -3500 0 0
-3500z m6790 0 l0 -3290 -3290 0 -3290 0 0 3290 0 3290 3290 0 3290 0 0 -3290z"/>
<path d="M1340 6165 c0 -91 2 -165 3 -165 2 0 125 -11 272 -25 211 -20 273
-29 290 -43 13 -9 46 -35 73 -57 l51 -40 -2 -2344 -2 -2344 -70 -57 -70 -58
-195 -16 c-107 -9 -216 -19 -242 -22 l-48 -6 0 -169 0 -169 1065 0 1065 0 0
169 0 169 -62 6 c-79 8 -483 36 -513 36 -12 0 -54 27 -93 60 l-72 61 0 841 0
840 53 -6 c322 -37 792 -43 1007 -13 570 80 992 274 1306 600 336 348 488 803
454 1360 -22 363 -100 634 -245 853 -250 375 -699 591 -1392 669 -270 30 -491
35 -1555 35 l-1078 0 0 -165z m2310 -239 c535 -70 874 -273 1052 -631 133
-266 171 -687 98 -1067 -71 -370 -264 -662 -545 -827 -235 -139 -475 -199
-825 -208 -186 -5 -509 13 -612 33 l-28 6 0 1349 0 1349 23 5 c85 19 666 13
837 -9z"/>
</g>
</svg>
