<?xml version="1.0" encoding="utf-8"?>
<!-- Generator: Adobe Illustrator 19.0.0, SVG Export Plug-In . SVG Version: 6.00 Build 0)  -->
<svg version="1.1" xmlns="http://www.w3.org/2000/svg" xmlns:xlink="http://www.w3.org/1999/xlink" x="0px" y="0px"
	 viewBox="0 0 1617.162 1258.651" enable-background="new 0 0 1617.162 1258.651" xml:space="preserve">
<g id="Layer_1">
	<path fill="#4963A6" d="M84.964,1224.391c1.953,5.859,5.859,8.789,12.266,8.789c12.734,0,21.562-6.836,25-19.57
		c0.977-3.438,0.977-6.328,0-8.789l-0.977-4.922c-14.727-39.609-22.07-98.32-23.047-175.625c-0.516-83.672,7.852-156.094,25-217.266
		c22.109-77.812,55.977-146.797,101.094-205.516c22.57-31.328,71.641-84.18,146.711-159.016
		c62.352-61.641,97.664-108.625,107-140.43c14.727-52.852,2.93-79.258-35.352-79.258c-39.727,0-82.422,23.992-126.602,71.922
		c-92.734,100.305-171.25,263.234-235.047,487.844C56.956,869.156,48.636,963.57,56.956,1067.32
		c5.899,65.078,14.258,115.469,26.016,152.148L84.964,1224.391z"/>
	<path fill="#4963A6" d="M397.542,975.328c-5.898,7.344-11.289,11.25-15.234,11.25c-8.828,0-12.266-4.414-9.805-13.711
		c0.508-0.469,0.977-1.445,1.953-2.422l2.461-4.922c59.883-100.773,95.195-171.25,106.484-210.859
		c8.828-31.836,12.773-59.219,11.289-83.203c-43.68,44.062-78.008,74.375-103.555,90.508c-25.516,16.172-50.039,24.492-74.57,24.492
		c-49.062,0-68.203-19.57-56.914-58.711c10.781-38.164,43.164-71.953,97.148-101.297
		c105.977-56.289,174.687-140.922,206.094-251.984c19.141-67.547,17.656-129.695-4.414-185.945
		c-13.75-37.172-45.625-87.109-96.68-149.711l-2.461-3.914c-1.953-2.461-2.422-5.906-0.977-9.797
		c1.992-7.828,7.383-12.234,15.703-12.234c3.945,0,6.406,0.984,7.375,2.422l4.422,2.453c0,0,0,0.516,0.977,1.5
		c71.172,61.633,118.242,130.141,140.82,205c25.031,84.648,20.625,185.469-12.734,302.414
		c-33.398,118.398-65.273,208.438-95.703,269.609c-26.484,53.32-66.719,113.008-120.234,178.086L397.542,975.328z"/>
</g>
<g id="Ebene_3">
	<g>
		<path fill="#4963A6" d="M783.928,927.284h-66.241l-11.16,51.12h-69.12l74.16-250.2h79.92l74.16,250.2h-70.561L783.928,927.284z
			 M773.487,879.764l-22.68-104.04l-22.681,104.04H773.487z"/>
		<path fill="#4963A6" d="M1106.845,853.124c0,81.36-42.12,131.761-114.84,131.761s-114.48-48.601-114.48-131.761
			c0-81.36,41.761-131.4,114.48-131.4S1106.845,769.964,1106.845,853.124z M946.645,853.124c0,60.48,15.12,83.88,45.36,83.88
			c31.32,0,45.36-23.399,45.36-83.88s-14.4-83.521-45.36-83.521C961.405,769.604,946.645,792.644,946.645,853.124z"/>
		<path fill="#4963A6" d="M1320.32,754.844l-29.88,35.28c-17.28-13.68-34.56-20.521-54.36-20.521
			c-19.439,0-30.239,7.561-30.239,21.24c0,14.4,9.359,19.44,46.8,31.681c49.32,15.479,74.16,36.72,74.16,82.08
			c0,47.16-38.16,80.28-102.24,80.28c-45.721,0-77.04-16.561-97.561-36.36l33.12-36.721c18,15.48,37.8,24.841,61.92,24.841
			c23.04,0,35.641-10.801,35.641-27c0-16.561-8.641-23.761-43.2-34.2c-58.32-18.36-77.04-42.48-77.04-79.2
			c0-45.721,39.96-74.521,93.6-74.521C1269.921,721.724,1298.001,733.604,1320.32,754.844z"/>
		<path fill="#4963A6" d="M1482.676,927.284h-66.24l-11.16,51.12h-69.12l74.16-250.2h79.92l74.16,250.2h-70.561L1482.676,927.284z
			 M1472.235,879.764l-22.68-104.04l-22.681,104.04H1472.235z"/>
	</g>
</g>
</svg>
